<svg xmlns="http://www.w3.org/2000/svg" viewBox="0 0 100 100">
  <g transform="translate(5, 5) scale(0.094)" fill="white">
    <path d="M450.93 44.685c41.023 4.873 76.638 10.319 106.85 16.316 27.971 5.553 49.756 20.675 64.497 45.041 12.645 20.904 20.044 49.462 20.044 85.955v350.166l.671.942c16.702 23.518 30.27 47.974 31.555 52.819l.035.14.142.614c.71 3.107 2.02 9.236 3.279 15.568l.217 1.098.26 1.328.257 1.316c.71 3.638 1.388 7.13 1.835 9.804l2.574 15.383-12.686 9.074c-.658.47-1.293.916-1.906 1.336-4.22 2.89-10.107 6.424-17.683 10.567a321.626 321.626 0 0 1-8.353 4.423l-.197.099v58.977c0 31.09-10.016 58.175-23.902 80.259l-.44.696c-21.28 33.486-51.396 54.825-66.483 61.725-14.625 6.688-42.669 19.95-84.134 39.785H454.87c-58.934-.167-104.272-.256-136.01-.268h-13.165c-22.618.01-34.483-1.015-34.922-.878-3.889 1.22-9.339 2.03-16.571.782a42.707 42.707 0 0 1-4.386-.99 439.16 439.16 0 0 1-2.721-1.375c-19.078-9.73-32.708-18.507-41.179-25.938-9.43-8.271-21.554-22.759-35.915-43.905V76.031c23.094-13.481 40.217-21.501 51.104-24.767 9.711-2.913 23.036-4.758 40.072-5.037l63.798 10.213 107.894.001Z"/>
  </g>
</svg>